<?xml version="1.0" encoding="UTF-8"?>
<svg width="489px" height="1291px" viewBox="0 0 489 1291" version="1.1" xmlns="http://www.w3.org/2000/svg" xmlns:xlink="http://www.w3.org/1999/xlink">
    <!-- Generator: Sketch 52.5 (67469) - http://www.bohemiancoding.com/sketch -->
    <title>Adult</title>
    <desc>Created with Sketch.</desc>
    <g id="Page-1" stroke="none" stroke-width="1" fill="none" fill-rule="evenodd">
        <g id="Group-5" transform="translate(-514.000000, 0.000000)" fill="#FFFFFF">
            <g id="Adult" transform="translate(514.000000, 0.000000)">
                <path d="M216.651445,229.881385 C198.57719,225.363485 172.528998,209.949473 159.7707,196.395773 C136.11469,171.414443 125.748573,142.446731 128.406552,107.632325 C132.659317,45.976277 181.566126,-2.27373675e-13 243.231232,-2.27373675e-13 C289.74586,-2.27373675e-13 329.881339,26.044365 350.081977,69.097295 C356.992722,83.4482716 357.524317,87.434654 357.524317,115.339331 C357.524317,145.104319 357.25852,146.433114 347.955594,165.833508 C335.728892,190.814838 318.45203,208.35492 293.732828,220.579826 C276.987562,228.81835 271.671605,230.147144 249.610381,230.94442 C235.788892,231.741697 220.904211,231.210179 216.651445,229.881385 Z" id="Path" transform="translate(242.762159, 115.659509) scale(-1, 1) rotate(-180.000000) translate(-242.762159, -115.659509) "></path>
                <path d="M51.843875,1283.78939 C40.4145665,1279.27149 32.1748324,1273.15904 22.606109,1262.79445 C-1.31569947,1237.01584 0.0132898936,1251.36682 0.0132898936,1015.10722 L0.0132898936,807.549577 L6.12664096,798.513777 C12.5057899,788.6807 31.9090346,777.51883 42.5409495,777.51883 C54.7676516,777.51883 72.576109,788.6807 78.955258,800.10833 L85.068609,810.738683 L85.068609,981.35585 C85.068609,1134.43293 85.6002048,1152.23878 89.321375,1156.22516 C93.3083431,1160.21154 102.079673,1159.68002 106.864035,1155.16212 C107.927226,1154.09909 108.990418,1062.67805 108.990418,951.590861 C108.990418,796.653465 109.787811,749.082635 112.44579,745.893529 C115.103769,742.704423 114.837971,742.438664 112.179992,744.033217 C109.522013,745.62777 108.990418,703.637876 109.522013,524.516426 L110.319407,302.873565 L117.761747,291.711694 C133.70962,267.527641 161.884194,258.7576 187.666588,269.653712 C201.222279,275.500406 207.33563,281.878618 216.904354,299.152941 C221.688715,307.922983 221.954513,316.958783 222.751907,473.224973 C223.017705,563.848733 223.283503,666.963158 223.283503,702.57484 L223.283503,767.154235 L244.015737,766.356959 L264.482173,765.559682 L265.013769,535.944056 L265.811162,306.32843 L273.253503,292.774729 C291.859354,259.289117 339.437173,255.302735 363.890577,285.067723 C376.383077,300.215977 377.712066,310.84633 377.446269,399.609778 C377.446269,444.52302 377.446269,632.680269 377.446269,817.914171 C377.446269,1154.09909 377.446269,1154.6306 382.762226,1157.55395 C389.407173,1161.00882 397.646907,1158.88275 399.77329,1153.03605 C400.836481,1150.90998 401.368077,1073.57416 401.368077,981.621608 C401.368077,821.900554 401.633875,813.66203 406.418237,802.500159 C414.923769,783.631283 435.124407,774.329724 455.856641,780.176418 C470.741322,784.428559 482.17063,795.856189 486.157598,809.941406 C488.549779,818.445689 489.081375,873.989284 488.549779,1022.01695 C487.486588,1249.77226 489.081375,1234.88977 465.159566,1261.73141 C456.919832,1271.03297 447.085311,1278.73998 438.048184,1282.72636 L423.960896,1289.10457 L245.876322,1289.63609 L67.7917473,1290.43337 L51.843875,1283.78939 Z" id="Path" transform="translate(244.369075, 777.716683) scale(-1, 1) rotate(-180.000000) translate(-244.369075, -777.716683) "></path>
            </g>
        </g>
    </g>
</svg>