<?xml version="1.0" encoding="UTF-8"?>
<svg width="433px" height="893px" viewBox="0 0 433 893" version="1.1" xmlns="http://www.w3.org/2000/svg" xmlns:xlink="http://www.w3.org/1999/xlink">
    <!-- Generator: Sketch 52.5 (67469) - http://www.bohemiancoding.com/sketch -->
    <title>Group 4</title>
    <desc>Created with Sketch.</desc>
    <g id="Page-1" stroke="none" stroke-width="1" fill="none" fill-rule="evenodd">
        <g id="Group-5" transform="translate(0.000000, -398.000000)" fill="#FFFFFF">
            <g id="Group-4" transform="translate(0.000000, 398.000000)">
                <path d="M13,580.624938 C22,577.699584 35.958379,577.699584 48.258883,588.597702 C74.470335,611.820776 122.150691,765.593081 134.643191,790.042893 C142.085532,804.39387 147.401489,807.848734 153.51484,801.736281 C156.704415,798.547175 156.970213,795.623828 154.84383,786.322269 C153.51484,779.944058 148.464681,757.886075 143.946117,737.422645 C139.427553,716.959216 131.453617,681.613292 126.13766,659.023791 C121.0875,636.434291 113.910957,604.808991 110.189787,588.597702 C106.734415,572.652173 102.481649,555.11209 101.15266,550.062672 C93.4445213,521.360719 88.3943617,496.379389 89.4575532,492.924525 C90.7865426,490.001178 95.8367021,488.938142 110.721383,488.938142 C121.619096,488.938142 130.656223,488.672383 130.922021,488.406625 C131.187819,487.875107 132.251011,429.142406 133.048404,357.387523 C134.377394,232.480874 134.643191,226.899939 139.693351,219.99021 C155.907021,198.463745 191.258138,200.058298 205.345426,222.913557 C211.458777,232.480874 211.458777,233.278151 212.787766,360.045111 L214.116755,487.609348 L228.735638,487.609348 L243.354521,487.609348 L244.683511,358.716317 C246.0125,239.922122 246.278298,229.02601 250.796862,222.382039 C262.22617,204.841956 284.553191,199.792539 303.690638,210.422892 C323.625479,221.584763 322.828085,217.332621 324.422872,360.045111 L325.751862,487.609348 L345.686702,488.938142 C361.900372,490.001178 365.621543,491.064213 366.418936,495.050595 C366.950532,497.442425 364.292553,511.793401 360.837181,526.941654 C357.116011,541.824149 351.534255,566.008202 348.344681,580.624938 C345.155106,595.241673 339.839149,619.159967 336.383777,633.776703 C332.928404,648.393438 328.40984,668.856868 326.01766,678.955703 C323.625479,689.320298 317.512128,715.630422 312.19617,737.422645 C299.70367,790.308652 298.374681,801.204764 304.488032,803.596593 C311.132979,805.988423 318.309521,798.812934 320.435904,787.385305 C322.562287,775.426158 367.21633,615.970861 373.063883,598.16502 C379.443032,579.561902 401.504255,571.589137 417.452128,582.485249 C431.539415,592.052567 434.994787,600.291091 431.539415,615.705103 C428.615638,629.524562 414.528351,679.487221 408.415,698.887615 C406.288617,705.531586 401.504255,722.80591 397.517287,737.422645 C393.530319,752.039381 387.15117,775.426158 382.898404,789.245617 C378.645638,803.065076 372.798085,824.591541 369.608511,837.082205 C361.368777,868.707506 354.989628,880.400894 342.762926,887.310624 C332.928404,892.891559 330.802021,893.157318 227.672447,892.360041 C126.403457,891.562765 122.682287,891.297006 115.239947,885.981829 C110.455585,882.526965 97.8084574,860.677744 80,827.457891 C64.3179255,798.490179 54.3289894,768.786685 53,767.457891 C52.1466367,766.604653 -1.1756109e-12,642.457891 -1.70530257e-12,624.457891 C-2.62371064e-12,593.264288 4,583.550291 13,580.624938 Z" id="Path" transform="translate(216.391111, 548.728945) scale(-1, 1) rotate(-180.000000) translate(-216.391111, -548.728945) "></path>
                <path d="M200.295266,174.386915 C160.159787,160.035938 137.035372,126.018809 139.161755,85.0919493 C140.756543,50.8090607 158.565,24.4989368 190.194947,8.81916603 C204.81383,1.64367771 209.332394,0.580642399 229.001436,0.846401226 C247.607287,0.846401226 253.189043,2.17519536 265.415745,8.28764838 C304.75383,28.2195604 325.220266,69.1464197 315.119947,107.947208 C307.146011,139.572509 289.337553,160.833215 261.694574,172.526603 C245.215106,179.436333 216.774734,180.233609 200.295266,174.386915 Z" id="Path" transform="translate(228.352660, 89.551305) scale(-1, 1) rotate(-180.000000) translate(-228.352660, -89.551305) "></path>
            </g>
        </g>
    </g>
</svg>