<?xml version="1.0" encoding="UTF-8"?>
<svg width="1003px" height="1291px" viewBox="0 0 1003 1291" version="1.1" xmlns="http://www.w3.org/2000/svg" xmlns:xlink="http://www.w3.org/1999/xlink">
    <!-- Generator: Sketch 52.5 (67469) - http://www.bohemiancoding.com/sketch -->
    <title>Group 5</title>
    <desc>Created with Sketch.</desc>
    <g id="Page-1" stroke="none" stroke-width="1" fill="none" fill-rule="evenodd">
        <g id="Group-5" fill="#FFFFFF">
            <g id="Adult" transform="translate(514.000000, 0.000000)">
                <path d="M216.651445,229.881385 C198.57719,225.363485 172.528998,209.949473 159.7707,196.395773 C136.11469,171.414443 125.748573,142.446731 128.406552,107.632325 C132.659317,45.976277 181.566126,-2.27373675e-13 243.231232,-2.27373675e-13 C289.74586,-2.27373675e-13 329.881339,26.044365 350.081977,69.097295 C356.992722,83.4482716 357.524317,87.434654 357.524317,115.339331 C357.524317,145.104319 357.25852,146.433114 347.955594,165.833508 C335.728892,190.814838 318.45203,208.35492 293.732828,220.579826 C276.987562,228.81835 271.671605,230.147144 249.610381,230.94442 C235.788892,231.741697 220.904211,231.210179 216.651445,229.881385 Z" id="Path" transform="translate(242.762159, 115.659509) scale(-1, 1) rotate(-180.000000) translate(-242.762159, -115.659509) "></path>
                <path d="M51.843875,1283.78939 C40.4145665,1279.27149 32.1748324,1273.15904 22.606109,1262.79445 C-1.31569947,1237.01584 0.0132898936,1251.36682 0.0132898936,1015.10722 L0.0132898936,807.549577 L6.12664096,798.513777 C12.5057899,788.6807 31.9090346,777.51883 42.5409495,777.51883 C54.7676516,777.51883 72.576109,788.6807 78.955258,800.10833 L85.068609,810.738683 L85.068609,981.35585 C85.068609,1134.43293 85.6002048,1152.23878 89.321375,1156.22516 C93.3083431,1160.21154 102.079673,1159.68002 106.864035,1155.16212 C107.927226,1154.09909 108.990418,1062.67805 108.990418,951.590861 C108.990418,796.653465 109.787811,749.082635 112.44579,745.893529 C115.103769,742.704423 114.837971,742.438664 112.179992,744.033217 C109.522013,745.62777 108.990418,703.637876 109.522013,524.516426 L110.319407,302.873565 L117.761747,291.711694 C133.70962,267.527641 161.884194,258.7576 187.666588,269.653712 C201.222279,275.500406 207.33563,281.878618 216.904354,299.152941 C221.688715,307.922983 221.954513,316.958783 222.751907,473.224973 C223.017705,563.848733 223.283503,666.963158 223.283503,702.57484 L223.283503,767.154235 L244.015737,766.356959 L264.482173,765.559682 L265.013769,535.944056 L265.811162,306.32843 L273.253503,292.774729 C291.859354,259.289117 339.437173,255.302735 363.890577,285.067723 C376.383077,300.215977 377.712066,310.84633 377.446269,399.609778 C377.446269,444.52302 377.446269,632.680269 377.446269,817.914171 C377.446269,1154.09909 377.446269,1154.6306 382.762226,1157.55395 C389.407173,1161.00882 397.646907,1158.88275 399.77329,1153.03605 C400.836481,1150.90998 401.368077,1073.57416 401.368077,981.621608 C401.368077,821.900554 401.633875,813.66203 406.418237,802.500159 C414.923769,783.631283 435.124407,774.329724 455.856641,780.176418 C470.741322,784.428559 482.17063,795.856189 486.157598,809.941406 C488.549779,818.445689 489.081375,873.989284 488.549779,1022.01695 C487.486588,1249.77226 489.081375,1234.88977 465.159566,1261.73141 C456.919832,1271.03297 447.085311,1278.73998 438.048184,1282.72636 L423.960896,1289.10457 L245.876322,1289.63609 L67.7917473,1290.43337 L51.843875,1283.78939 Z" id="Path" transform="translate(244.369075, 777.716683) scale(-1, 1) rotate(-180.000000) translate(-244.369075, -777.716683) "></path>
            </g>
            <g id="Group-4" transform="translate(0.000000, 398.000000)">
                <path d="M13,580.624938 C22,577.699584 35.958379,577.699584 48.258883,588.597702 C74.470335,611.820776 122.150691,765.593081 134.643191,790.042893 C142.085532,804.39387 147.401489,807.848734 153.51484,801.736281 C156.704415,798.547175 156.970213,795.623828 154.84383,786.322269 C153.51484,779.944058 148.464681,757.886075 143.946117,737.422645 C139.427553,716.959216 131.453617,681.613292 126.13766,659.023791 C121.0875,636.434291 113.910957,604.808991 110.189787,588.597702 C106.734415,572.652173 102.481649,555.11209 101.15266,550.062672 C93.4445213,521.360719 88.3943617,496.379389 89.4575532,492.924525 C90.7865426,490.001178 95.8367021,488.938142 110.721383,488.938142 C121.619096,488.938142 130.656223,488.672383 130.922021,488.406625 C131.187819,487.875107 132.251011,429.142406 133.048404,357.387523 C134.377394,232.480874 134.643191,226.899939 139.693351,219.99021 C155.907021,198.463745 191.258138,200.058298 205.345426,222.913557 C211.458777,232.480874 211.458777,233.278151 212.787766,360.045111 L214.116755,487.609348 L228.735638,487.609348 L243.354521,487.609348 L244.683511,358.716317 C246.0125,239.922122 246.278298,229.02601 250.796862,222.382039 C262.22617,204.841956 284.553191,199.792539 303.690638,210.422892 C323.625479,221.584763 322.828085,217.332621 324.422872,360.045111 L325.751862,487.609348 L345.686702,488.938142 C361.900372,490.001178 365.621543,491.064213 366.418936,495.050595 C366.950532,497.442425 364.292553,511.793401 360.837181,526.941654 C357.116011,541.824149 351.534255,566.008202 348.344681,580.624938 C345.155106,595.241673 339.839149,619.159967 336.383777,633.776703 C332.928404,648.393438 328.40984,668.856868 326.01766,678.955703 C323.625479,689.320298 317.512128,715.630422 312.19617,737.422645 C299.70367,790.308652 298.374681,801.204764 304.488032,803.596593 C311.132979,805.988423 318.309521,798.812934 320.435904,787.385305 C322.562287,775.426158 367.21633,615.970861 373.063883,598.16502 C379.443032,579.561902 401.504255,571.589137 417.452128,582.485249 C431.539415,592.052567 434.994787,600.291091 431.539415,615.705103 C428.615638,629.524562 414.528351,679.487221 408.415,698.887615 C406.288617,705.531586 401.504255,722.80591 397.517287,737.422645 C393.530319,752.039381 387.15117,775.426158 382.898404,789.245617 C378.645638,803.065076 372.798085,824.591541 369.608511,837.082205 C361.368777,868.707506 354.989628,880.400894 342.762926,887.310624 C332.928404,892.891559 330.802021,893.157318 227.672447,892.360041 C126.403457,891.562765 122.682287,891.297006 115.239947,885.981829 C110.455585,882.526965 97.8084574,860.677744 80,827.457891 C64.3179255,798.490179 54.3289894,768.786685 53,767.457891 C52.1466367,766.604653 -1.1756109e-12,642.457891 -1.70530257e-12,624.457891 C-2.62371064e-12,593.264288 4,583.550291 13,580.624938 Z" id="Path" transform="translate(216.391111, 548.728945) scale(-1, 1) rotate(-180.000000) translate(-216.391111, -548.728945) "></path>
                <path d="M200.295266,174.386915 C160.159787,160.035938 137.035372,126.018809 139.161755,85.0919493 C140.756543,50.8090607 158.565,24.4989368 190.194947,8.81916603 C204.81383,1.64367771 209.332394,0.580642399 229.001436,0.846401226 C247.607287,0.846401226 253.189043,2.17519536 265.415745,8.28764838 C304.75383,28.2195604 325.220266,69.1464197 315.119947,107.947208 C307.146011,139.572509 289.337553,160.833215 261.694574,172.526603 C245.215106,179.436333 216.774734,180.233609 200.295266,174.386915 Z" id="Path" transform="translate(228.352660, 89.551305) scale(-1, 1) rotate(-180.000000) translate(-228.352660, -89.551305) "></path>
            </g>
        </g>
    </g>
</svg>